Broken Arrow (1996) [BDRip720p][Nautilus-BT]
Join www.nautilus-bt.org

[img]http://img5.imageshack.us/img5/3336/displaymediaphpo.jpg[/img]

Link IMDb : http://www.imdb.com/title/tt0115759/

Terrorists steal nuclear warheads from the US military but don't count on a pilot and park ranger spoiling their plans.


Italian title : Nome in codice : Broken Arrow
Original title : Broken Arrow
Release date : 1996
Genre : action
Country : USA
Directed by : John Woo
Written by : Graham Yost
Music by : Hans Zimmer


Languages : Italian - English
Subtitle : Italian
Subtitle deaf : English
Subtitle forced : Italian
Chapters : yes


[img]http://img221.imageshack.us/img221/8132/brokenarrowquantanal.png[/img]

General
Complete name                    : Broken Arrow (1996) [BDRip720p Ita-Eng] by Pitt@Sk8.mkv
Format                           : Matroska
File size                        : 4.38 GiB
Duration                         : 1h 48mn
Overall bit rate                 : 5 785 Kbps
Encoded date                     : UTC 2011-01-13 16:54:50
Writing application              : mkvmerge v4.0.0 ('The Stars were mine') built on Jun  6 2010 16:18:42
Writing library                  : libebml v1.0.0 + libmatroska v1.0.0

Video
ID                               : 1
Format                           : AVC
Format/Info                      : Advanced Video Codec
Format profile                   : High@L4.1
Format settings, CABAC           : Yes
Format settings, ReFrames        : 3 frames
Muxing mode                      : Container profile=Unknown@4.1
Codec ID                         : V_MPEG4/ISO/AVC
Duration                         : 1h 48mn
Bit rate mode                    : Variable
Bit rate                         : 4 689 Kbps
Maximum bit rate                 : 40.0 Mbps
Width                            : 1 280 pixels
Height                           : 542 pixels
Display aspect ratio             : 16:9
Frame rate                       : 23.976 fps
Color space                      : YUV
Chroma subsampling               : 4:2:0
Bit depth                        : 8 bits
Scan type                        : Progressive
Bits/(Pixel*Frame)               : 0.282
Stream size                      : 3.47 GiB (79%)
Title                            : BDRip720p by Pitt@Sk8
Writing library                  : x264 core 104 r1713 c276662
Encoding settings                : cabac=1 / ref=3 / deblock=1:0:0 / analyse=0x3:0x133 / me=hex / subme=7 / psy=1 / psy_rd=1.00:0.00 / mixed_ref=1 / me_range=16 / chroma_me=1 / trellis=1 / 8x8dct=1 / cqm=0 / deadzone=21,11 / fast_pskip=1 / chroma_qp_offset=-2 / threads=6 / sliced_threads=0 / slices=4 / nr=0 / decimate=1 / interlaced=0 / constrained_intra=0 / bframes=3 / b_pyramid=1 / b_adapt=1 / b_bias=0 / direct=1 / weightb=1 / open_gop=2 / weightp=2 / keyint=240 / keyint_min=23 / scenecut=40 / intra_refresh=0 / rc_lookahead=40 / rc=2pass / mbtree=1 / bitrate=4689 / ratetol=1.0 / qcomp=0.60 / qpmin=10 / qpmax=51 / qpstep=4 / cplxblur=20.0 / qblur=0.5 / vbv_maxrate=40000 / vbv_bufsize=40000 / ip_ratio=1.40 / aq=1:1.00 / nal_hrd=vbr

Audio #1
ID                               : 2
Format                           : AC-3
Format/Info                      : Audio Coding 3
Mode extension                   : CM (complete main)
Codec ID                         : A_AC3
Duration                         : 1h 48mn
Bit rate mode                    : Constant
Bit rate                         : 640 Kbps
Channel(s)                       : 6 channels
Channel positions                : Front: L C R, Side: L R, LFE
Sampling rate                    : 48.0 KHz
Bit depth                        : 16 bits
Stream size                      : 496 MiB (11%)
Title                            : Italiano AC3 5.1 640 kbps - Pitt@Sk8
Language                         : Italian

Audio #2
ID                               : 3
Format                           : AC-3
Format/Info                      : Audio Coding 3
Mode extension                   : CM (complete main)
Codec ID                         : A_AC3
Duration                         : 1h 48mn
Bit rate mode                    : Constant
Bit rate                         : 448 Kbps
Channel(s)                       : 6 channels
Channel positions                : Front: L C R, Side: L R, LFE
Sampling rate                    : 48.0 KHz
Bit depth                        : 16 bits
Stream size                      : 347 MiB (8%)
Title                            : English AC3 5.1 448 kbps - Pitt@Sk8
Language                         : English

Text #1
ID                               : 4
Format                           : VobSub
Codec ID                         : S_VOBSUB
Codec ID/Info                    : The same subtitle format used on DVDs
Title                            : Cartelli - Italiano
Language                         : Italian

Text #2
ID                               : 5
Format                           : VobSub
Codec ID                         : S_VOBSUB
Codec ID/Info                    : The same subtitle format used on DVDs
Title                            : Sottotitoli - Italiano
Language                         : Italian

Text #3
ID                               : 6
Format                           : VobSub
Codec ID                         : S_VOBSUB
Codec ID/Info                    : The same subtitle format used on DVDs
Title                            : Subtitle English [deaf]
Language                         : English

Menu
00:00:00.000                     : en:Broken Arrow -01- Pitt@Sk8
00:05:28.286                     : en:Broken Arrow -02- Pitt@Sk8
00:13:03.157                     : en:Broken Arrow -03- Pitt@Sk8
00:17:41.978                     : en:Broken Arrow -04- Pitt@Sk8
00:20:00.908                     : en:Broken Arrow -05- Pitt@Sk8
00:22:59.336                     : en:Broken Arrow -06- Pitt@Sk8
00:26:38.931                     : en:Broken Arrow -07- Pitt@Sk8
00:33:55.242                     : en:Broken Arrow -08- Pitt@Sk8
00:42:54.655                     : en:Broken Arrow -09- Pitt@Sk8
00:50:53.008                     : en:Broken Arrow -10- Pitt@Sk8
00:53:59.403                     : en:Broken Arrow -11- Pitt@Sk8
01:04:42.712                     : en:Broken Arrow -12- Pitt@Sk8
01:08:48.166                     : en:Broken Arrow -13- Pitt@Sk8
01:11:17.148                     : en:Broken Arrow -14- Pitt@Sk8
01:14:29.882                     : en:Broken Arrow -15- Pitt@Sk8
01:18:00.509                     : en:Broken Arrow -16- Pitt@Sk8
01:20:56.185                     : en:Broken Arrow -17- Pitt@Sk8
01:26:34.189                     : en:Broken Arrow -18- Pitt@Sk8
01:28:49.533                     : en:Broken Arrow -19- Pitt@Sk8
01:30:31.176                     : en:Broken Arrow -20- Pitt@Sk8
01:33:05.580                     : en:Broken Arrow -21- Pitt@Sk8
01:42:13.419                     : en:Broken Arrow -22- Pitt@Sk8


[img]http://img199.imageshack.us/img199/1227/brokenarrow1996bdrip720.jpg[/img]

[img]http://img809.imageshack.us/img809/1227/brokenarrow1996bdrip720.jpg[/img]

[img]http://img4.imageshack.us/img4/1227/brokenarrow1996bdrip720.jpg[/img]

[img]http://img688.imageshack.us/img688/1227/brokenarrow1996bdrip720.jpg[/img]

[img]http://img526.imageshack.us/img526/1227/brokenarrow1996bdrip720.jpg[/img]

[img]http://img155.imageshack.us/img155/1227/brokenarrow1996bdrip720.jpg[/img]

Join www.nautilus-bt.org
